<?xml version="1.0" encoding="utf-8"?>
<!-- Generator: Adobe Illustrator 16.0.0, SVG Export Plug-In . SVG Version: 6.00 Build 0)  -->
<!DOCTYPE svg PUBLIC "-//W3C//DTD SVG 1.1//EN" "http://www.w3.org/Graphics/SVG/1.1/DTD/svg11.dtd">
<svg version="1.1" id="圖層_1" xmlns="http://www.w3.org/2000/svg" xmlns:xlink="http://www.w3.org/1999/xlink" x="0px" y="0px"
	 width="595.411px" height="514.895px" viewBox="0 0 595.411 514.895" enable-background="new 0 0 595.411 514.895"
	 xml:space="preserve">
<g>
	<path fill-rule="evenodd" clip-rule="evenodd" fill="#F28F6B" d="M382.929,61.196c15.801,5.009,31.957,8.84,47.363,15.162
		c12.261,5.03,24.495,10.092,35.95,16.9c1.042,1.643,2.991,1.472,4.435,2.311l-0.002-0.002c0.929,1.311,2.529,1.481,3.751,2.303
		c16.499,9.915,32.581,20.581,46.815,33.62c10.529,9.646,20.5,19.971,29.435,31.421c8.31,10.649,14.769,22.409,22.337,33.466
		c0.83,1.24,0.99,2.89,2.25,3.874l-0.002,0.002c1.188,1.29,0.795,3.385,2.22,4.555c7.28,17.539,13.204,35.339,16.028,54.414
		c1.74,11.751,2.377,23.401,1.53,34.948c-1.57,21.416-5.614,42.446-14.978,62.026c-1.764,3.689-3.138,7.573-4.692,11.369
		c-6.372,9.59-11.731,19.84-18.505,29.183c-10.985,15.151-22.566,29.64-37.689,40.826c-3.847,2.845-6.852,6.859-11.212,9.11
		c-4.679,4.789-10.613,7.919-15.597,12.308c-6.765,3.264-12.769,7.858-19.291,11.535c-9.604,5.412-19.161,10.944-29.568,14.687
		c-22.754,10.013-46.461,17-70.605,22.229c-12.707,2.752-25.834,3.597-38.678,5.495c-18.882,2.792-37.662,1.925-56.403,1.443
		c-11.397-0.292-23.052-1.162-34.432-3.761c-5.295-1.21-10.854-1.542-16.292-2.396c-14.441-2.269-28.307-6.598-42.241-10.754
		c-21.871-6.524-42.659-15.821-62.537-27.052c-15.171-8.571-29.438-18.631-42.803-30.06c-7.671-6.562-15.289-13.132-22.09-20.601
		c-11.063-12.149-21.246-25.006-29.463-39.424c-1.639-2.873-3.817-5.528-5.789-8.247c-1.716-0.867-1.466-2.88-2.352-4.23
		c-0.526-1.719-0.765-3.57-2.125-4.915l-0.019,0.002c-0.61-1.606-1.136-3.251-2.053-4.719c-3.469-9.935-7.604-19.645-10.006-29.943
		c-5.31-22.774-7.395-45.643-3.887-69.057C4.017,243.976,8.5,229.5,13.245,215.015c1.174-1.71,0.855-4.047,2.277-5.651l0.018,0.032
		c1.134-1.333,1.448-3.069,2.178-4.602c1.404-1.177,1.563-2.988,2.218-4.547c1.281-1.237,1.426-3.069,2.281-4.529
		c7.531-13.17,16.026-25.66,25.328-37.581c0.67-3.599,3.5-5.456,5.895-7.666c2.708-1.709,4.685-4.246,6.947-6.458
		c1.212-1.187,2.406-2.395,3.566-3.636c1.86-1.944,3.92-3.703,5.296-6.093c6.07-6.388,13.088-11.574,20.186-16.654
		c1.32-0.545,2.6-1.157,3.402-2.469c4.111-2.578,7.346-6.393,11.7-8.622c6.423-3.475,12.191-8.155,19.068-10.787l-0.052,0.046
		c6.717-5.369,14.393-8.773,22.428-11.44c18.313-8.343,37.373-14.533,56.511-20.498c6.771-2.735,14.157-3.152,20.952-5.811
		c14.724,6.611,30.235,10.756,46.17,11.249c10.583,0.326,16.276,3.909,18.541,14.467c0.967,4.509,3.835,8.58,7.003,12.127
		c7.441,8.329,17.293,8.137,24.508-0.396c4.469-5.282,7.172-11.477,8.918-18.103c1.269-4.811,3.775-7.006,8.888-7.527
		c13.63-1.388,27.197-3.421,40.14-8.424C379.291,60.796,381.102,59.994,382.929,61.196z"/>
	<path fill-rule="evenodd" clip-rule="evenodd" fill="#848B51" d="M382.929,61.196c-15.423,6.157-31.522,9.162-47.947,10.397
		c-3.063,0.231-3.599,2.048-4.255,4.191c-1.935,6.31-3.832,12.591-7.858,17.988c-10.191,13.657-23.117,13.343-32.118-1.084
		c-2.976-4.77-5.772-9.868-6.729-15.464c-0.807-4.718-3.202-5.3-7.221-5.599c-18.431-1.37-36.733-3.578-53.449-12.635
		c-5.63-4.68-5.104-8.857,1.766-14.065c1.635-0.818,3.691-0.237,5.163-1.612c14.102-6.298,29.067-8.669,44.238-8.89
		c6.088-0.089,8.321-2.202,9.641-7.782c1.982-8.383,5.902-15.832,12.268-21.789c7.012-6.561,13.572-6.396,20.499,0.071
		c6.98,6.518,10.938,14.661,13.041,23.788c0.967,4.2,2.645,5.525,7.006,5.719c13.679,0.611,27.12,3.044,40.034,7.928
		c1.718,0.649,3.409,1.482,4.953,2.49C390.008,50.099,390.253,54.641,382.929,61.196z"/>
	<path fill-rule="evenodd" clip-rule="evenodd" fill="#E3877E" d="M22.056,370.962c5.754,3.529,6.844,10.453,10.461,15.554
		c3.087,4.353,6.327,8.721,9.446,13.049c8.637,11.987,18.382,23.169,29.444,32.851c24.009,21.013,50.169,38.768,79.396,51.392
		c16.737,7.23,34.017,12.84,51.496,18.026c15.977,4.738,32.282,7.419,48.574,9.793c23.979,3.497,48.357,4.156,72.437,2.257
		c26.897-2.125,53.663-6.632,79.584-14.808c13.82-4.359,27.375-9.598,41.051-14.438c0.285,0.252,0.38,0.506,0.286,0.761
		c-0.095,0.254-0.188,0.381-0.282,0.381c-17.742,7.992-36.193,13.665-54.948,18.659c-14.294,3.807-28.762,6.681-43.299,8.427
		c-16.445,1.978-33.045,2.903-49.713,2.999c-15.393,0.088-30.649-1.366-45.794-2.988c-21.768-2.329-43.209-7.29-64.2-13.979
		c-28.355-9.036-55.387-21.066-80.325-37.591c-31.573-20.921-58.677-46.555-78.173-79.897c-0.552-0.942-1.396-1.707-2.104-2.554
		c-1.07-1.913-2.691-3.513-3.146-5.776l0.021,0.025C21.5,372.462,21.51,371.74,22.056,370.962z"/>
	<path fill-rule="evenodd" clip-rule="evenodd" fill="#E3847B" d="M572.961,196.917c-5.627-3.415-6.383-10.292-10.162-15.148
		c-4.283-5.505-8.505-11.232-12.35-17.036c-7.476-11.29-17.453-19.962-26.658-29.408c-9.846-10.103-21.46-18.089-33.114-25.913
		c-5.633-3.783-11.229-7.625-16.842-11.44c0.415-0.595,0.896-0.658,1.443-0.187c16.933,9.126,32.557,20.315,46.865,33.182
		c20.56,18.489,38.207,39.586,51.013,64.574C573.52,196.064,573.454,196.522,572.961,196.917z"/>
	<path fill-rule="evenodd" clip-rule="evenodd" fill="#E89C95" d="M507.38,445.962c14.473-11.505,28.317-23.486,39.818-38.431
		c9.188-11.94,17.324-24.416,24.894-37.386c0.711-1.216,1.365-2.819,3.277-2.582c-5.936,13.86-14.61,25.967-23.467,37.925
		c-10.396,14.04-22.749,26.128-36.231,37.031c-1.571,1.272-3.351,2.279-5.034,3.408C509.56,446.723,508.475,446.853,507.38,445.962z
		"/>
	<path fill-rule="evenodd" clip-rule="evenodd" fill="#E9A099" d="M443.948,485.779c-0.001-0.381-0.002-0.762-0.004-1.142
		c15.24-7.387,30.111-15.471,44.265-24.862c1.528-1.015,3.014-1.203,4.592-1.57c0.341,0.232,0.468,0.482,0.381,0.749
		c-0.091,0.275-0.188,0.413-0.293,0.413c-13.933,9.458-28.61,17.543-43.725,24.835C447.479,485.013,445.874,485.897,443.948,485.779
		z"/>
	<path fill-rule="evenodd" clip-rule="evenodd" fill="#FBEFE2" d="M104.566,107.091c-3.172,3.719-7.716,5.629-11.234,8.893
		c-0.837,1.22-2.241,1.539-3.407,2.234c-6.755,5.579-13.976,10.584-20.023,17.034c-0.587,0.83-1.331,0.845-2.157,0.431
		c-0.287-0.327-0.377-0.648-0.271-0.965c0.105-0.314,0.207-0.471,0.306-0.471c7.232-8.243,16.074-14.482,25.11-20.339
		c3.98-2.581,6.417-7.441,11.609-8.137c0.31,0.278,0.422,0.565,0.339,0.864C104.754,106.939,104.664,107.091,104.566,107.091z"/>
	<path fill-rule="evenodd" clip-rule="evenodd" fill="#F5EEDD" d="M225.875,45.57c-6.909,4.956-7.193,6.467-2.524,13.42
		c-6.837,2.143-13.791,3.767-20.86,4.873c2.725-3.083,6.546-3.094,10.097-3.456c4.445-0.452,6.974-1.745,6.671-7.168
		c-0.371-6.65,2.193-8.968,9.048-9.806C228.492,45.328,226.441,44.566,225.875,45.57z"/>
	<path fill-rule="evenodd" clip-rule="evenodd" fill="#FCF3E7" d="M67.781,134.248c0.045,0.496,0.091,0.99,0.136,1.485
		c-0.278,2.777-2.973,3.616-4.276,5.573c-0.854,0.89-1.688,1.8-2.602,2.628c-2.322,2.353-4.548,4.799-6.844,7.175
		c-2.217,2.343-4.433,4.685-6.649,7.028c-1.626-1.705-0.636-3.083,0.601-4.323C54.675,147.276,61.232,140.767,67.781,134.248z"/>
	<path fill-rule="evenodd" clip-rule="evenodd" fill="#EAA69E" d="M492.889,459.367c-0.028-0.386-0.058-0.772-0.088-1.16
		c3.781-5.424,10.154-7.623,14.579-12.244c1.086-0.011,2.172-0.022,3.258-0.033C505.205,451.076,499.201,455.433,492.889,459.367z"
		/>
	<path fill-rule="evenodd" clip-rule="evenodd" fill="#FBEFE0" d="M145.98,84.361c-7.476,3.813-14.952,7.626-22.428,11.44
		C129.414,88.681,137.383,85.877,145.98,84.361z"/>
	<path fill-rule="evenodd" clip-rule="evenodd" fill="#FBEFE1" d="M104.566,107.091c-0.022-0.44-0.044-0.879-0.067-1.319
		c4.93-3.109,9.549-6.725,14.943-9.079c1.403-0.611,2.631-1.252,4.161-0.939C117.366,99.722,111.319,104.025,104.566,107.091z"/>
	<path fill-rule="evenodd" clip-rule="evenodd" fill="#EAA49C" d="M577.48,204.807c-2.972-0.381-2.052-2.745-2.22-4.555
		C577.361,201.077,577.47,202.917,577.48,204.807z"/>
	<path fill-rule="evenodd" clip-rule="evenodd" fill="#F5DAC7" d="M15.522,209.364c0.077,2.235-0.679,4.12-2.277,5.65
		C13.231,212.805,12.906,210.466,15.522,209.364z"/>
	<path fill-rule="evenodd" clip-rule="evenodd" fill="#F7EBE0" d="M22.056,370.962c0.07,0.713,0.141,1.428,0.211,2.141
		c-2.769-0.836-2.159-3.837-3.445-5.624c0.372-0.557,0.762-0.569,1.171-0.041C20.681,368.614,21.368,369.787,22.056,370.962z"/>
	<path fill-rule="evenodd" clip-rule="evenodd" fill="#F7EBE0" d="M22.246,373.078c1.494,1.674,3.08,3.293,3.146,5.776
		C23.231,377.562,21.785,375.863,22.246,373.078z"/>
	<path fill-rule="evenodd" clip-rule="evenodd" fill="#E48C83" d="M470.677,95.569c-1.844-0.039-4.172,0.894-4.435-2.311
		C467.886,93.696,469.679,93.836,470.677,95.569z"/>
	<path fill-rule="evenodd" clip-rule="evenodd" fill="#E48C83" d="M475.278,97.785c-0.48,0.062-0.959,0.124-1.442,0.186
		c-1.626-0.016-3.188-0.12-3.161-2.404C472.386,95.927,474.067,96.344,475.278,97.785z"/>
	<path fill-rule="evenodd" clip-rule="evenodd" fill="#EAA59D" d="M572.961,196.917c0.064-0.458,0.13-0.916,0.195-1.375
		c1.474,1.208,1.998,2.861,2.106,4.707C572.981,200.233,573.114,198.473,572.961,196.917z"/>
	<path fill-rule="evenodd" clip-rule="evenodd" fill="#9FA374" d="M225.875,45.57c0.81-0.713,1.62-1.426,2.431-2.139
		c0.659-0.04,1.316-0.08,1.973-0.12C229.394,45.25,227.831,45.811,225.875,45.57z"/>
	<path fill-rule="evenodd" clip-rule="evenodd" fill="#F2CDBD" d="M22.217,195.718c-0.019,1.9-0.29,3.667-2.281,4.529
		C20.115,198.433,20.578,196.765,22.217,195.718z"/>
	<path fill-rule="evenodd" clip-rule="evenodd" fill="#F3D0BF" d="M17.718,204.794c0.035,1.911-0.222,3.676-2.178,4.602
		C15.639,207.553,16.132,205.903,17.718,204.794z"/>
	<path fill-rule="evenodd" clip-rule="evenodd" fill="#EEC7B9" d="M15.625,358.223c1.847,1.044,2.141,2.794,2.053,4.719
		C16.068,361.79,15.562,360.136,15.625,358.223z"/>
	<path fill-rule="evenodd" clip-rule="evenodd" fill="#EEC2B5" d="M19.993,367.438c-0.39,0.014-0.781,0.028-1.171,0.041
		c-0.375-1.513-0.75-3.026-1.125-4.539C19.809,363.72,19.894,365.583,19.993,367.438z"/>
	<g>
		<path fill-rule="evenodd" clip-rule="evenodd" fill="#333333" d="M231.368,104.552c9.34,0.015,16.67,7.422,16.618,16.796
			c-0.051,9.17-7.805,17.056-16.708,16.992c-9.013-0.064-16.572-7.858-16.567-17.082
			C214.714,111.857,222.013,104.539,231.368,104.552z"/>
		<path fill-rule="evenodd" clip-rule="evenodd" fill="#333333" d="M395.242,121.603c-0.099,9.725-7.276,16.847-16.726,16.594
			c-9.133-0.245-15.98-7.475-15.969-16.861c0.013-9.792,6.951-16.841,16.521-16.784C388.605,104.608,395.342,111.71,395.242,121.603
			z"/>
	</g>
	<path fill-rule="evenodd" clip-rule="evenodd" fill="#333333" d="M328.219,183.743c-0.14,13.828-10.346,23.954-23.781,23.594
		c-12.985-0.348-22.722-10.629-22.705-23.975c0.019-13.922,9.884-23.946,23.49-23.864
		C318.782,159.578,328.361,169.677,328.219,183.743z"/>
	<path fill-rule="evenodd" clip-rule="evenodd" fill="#E7968B" d="M54.195,151.11c1.507-3.324,4.213-5.518,6.934-7.699
		c0.315,0.266,0.43,0.542,0.345,0.83c-0.087,0.293-0.18,0.44-0.28,0.44C59.073,147.065,57.377,149.933,54.195,151.11z"/>
	<path fill-rule="evenodd" clip-rule="evenodd" fill="#E7978B" d="M63.399,141.107c1.506-1.792,3.011-3.586,4.518-5.376
		c0.663-0.158,1.325-0.317,1.987-0.479c-1.056,2.639-3.232,4.226-5.313,5.902C64.177,141.578,63.78,141.542,63.399,141.107z"/>
	<path fill-rule="evenodd" clip-rule="evenodd" fill="#E48C81" d="M89.926,118.218c0.777-1.315,1.886-2.103,3.407-2.234
		C93.272,118.443,91.64,118.396,89.926,118.218z"/>
	<path fill-rule="evenodd" clip-rule="evenodd" fill="#E6958A" d="M63.399,141.107c0.396,0.016,0.793,0.031,1.19,0.046
		c-1.131,1.175-2.264,2.351-3.396,3.526c-0.021-0.421-0.043-0.846-0.064-1.269C61.885,142.644,62.642,141.875,63.399,141.107z"/>
</g>
</svg>
